<svg width="500" height="500" viewBox="0 0 500 500" fill="none" xmlns="http://www.w3.org/2000/svg">
<circle cx="250" cy="250" r="244.5" fill="#EBEBEB" stroke="#068D9D" stroke-width="11"/>
<path d="M138.719 96.5781V108.672H100.609C93.7656 108.672 90.3438 112.094 90.3438 118.938V365.734C90.3438 372.578 93.7656 376 100.609 376H141.953V388.094H68.8281V96.5781H138.719ZM409.703 118.938C409.703 112.094 406.328 108.672 399.578 108.672H361.047V96.5781H431.078V388.094H357.953V376H399.578C406.328 376 409.703 372.578 409.703 365.734V118.938Z" fill="#068D9D"/>
<path d="M355 146.219C355 146.969 354.625 147.344 353.875 147.344H348.672C336.766 149.688 328 159.438 322.375 176.594C320.875 181.094 319.328 185.453 317.734 189.672L262.469 338.875C261.625 341.219 260.594 342.625 259.375 343.094C258.156 343.562 256.469 343.797 254.312 343.797H247.703C245.453 343.797 244 342.766 243.344 340.703L169.234 161.125C166.234 153.719 158.828 149.172 147.016 147.484C146.359 147.391 145.797 147.344 145.328 147.344C144.953 147.344 144.766 146.969 144.766 146.219V142.844C144.766 142.094 145.141 141.719 145.891 141.719H228.859C229.609 141.719 229.984 142.094 229.984 142.844V146.219C229.984 146.969 229.609 147.344 228.859 147.344H226.75C224.406 147.719 221.688 148.094 218.594 148.469C206.594 149.969 200.594 154.75 200.594 162.812C200.594 165.344 201.25 168.062 202.562 170.969L255.859 300.625C256.797 302.5 257.781 302.453 258.812 300.484L307.75 168.016C308.406 166.141 308.734 163.938 308.734 161.406C308.734 158.781 307.656 156.297 305.5 153.953C303.344 151.516 301.141 150.109 298.891 149.734C296.734 149.359 295 149.078 293.688 148.891C292.469 148.703 290.594 148.422 288.062 148.047C285.531 147.578 283.844 147.344 283 147.344C282.156 147.344 281.734 146.969 281.734 146.219V142.844C281.734 142.094 282.109 141.719 282.859 141.719H353.875C354.625 141.719 355 142.094 355 142.844V146.219Z" fill="#141414"/>
</svg>
