<svg width="388" height="147" viewBox="0 0 388 147" fill="none" xmlns="http://www.w3.org/2000/svg">
<path d="M35.3594 0.289062V6.33594H16.3047C12.8828 6.33594 11.1719 8.04687 11.1719 11.4688V134.867C11.1719 138.289 12.8828 140 16.3047 140H36.9766V146.047H0.414062V0.289062H35.3594ZM376.727 11.4688C376.727 8.04687 375.039 6.33594 371.664 6.33594H352.398V0.289062H387.414V146.047H350.852V140H371.664C375.039 140 376.727 138.289 376.727 134.867V11.4688Z" fill="#068D9D"/>
<path d="M143.5 25.1094C143.5 25.4844 143.312 25.6719 142.938 25.6719H140.336C134.383 26.8438 130 31.7188 127.188 40.2969C126.438 42.5469 125.664 44.7266 124.867 46.8359L97.2344 121.438C96.8125 122.609 96.2969 123.312 95.6875 123.547C95.0781 123.781 94.2344 123.898 93.1562 123.898H89.8516C88.7266 123.898 88 123.383 87.6719 122.352L50.6172 32.5625C49.1172 28.8594 45.4141 26.5859 39.5078 25.7422C39.1797 25.6953 38.8984 25.6719 38.6641 25.6719C38.4766 25.6719 38.3828 25.4844 38.3828 25.1094V23.4219C38.3828 23.0469 38.5703 22.8594 38.9453 22.8594H80.4297C80.8047 22.8594 80.9922 23.0469 80.9922 23.4219V25.1094C80.9922 25.4844 80.8047 25.6719 80.4297 25.6719H79.375C78.2031 25.8594 76.8438 26.0469 75.2969 26.2344C69.2969 26.9844 66.2969 29.375 66.2969 33.4062C66.2969 34.6719 66.625 36.0312 67.2812 37.4844L93.9297 102.312C94.3984 103.25 94.8906 103.227 95.4062 102.242L119.875 36.0078C120.203 35.0703 120.367 33.9688 120.367 32.7031C120.367 31.3906 119.828 30.1484 118.75 28.9766C117.672 27.7578 116.57 27.0547 115.445 26.8672C114.367 26.6797 113.5 26.5391 112.844 26.4453C112.234 26.3516 111.297 26.2109 110.031 26.0234C108.766 25.7891 107.922 25.6719 107.5 25.6719C107.078 25.6719 106.867 25.4844 106.867 25.1094V23.4219C106.867 23.0469 107.055 22.8594 107.43 22.8594H142.938C143.312 22.8594 143.5 23.0469 143.5 23.4219V25.1094ZM149.195 90.4297C149.195 81.1953 152.453 73.2734 158.969 66.6641C165.531 60.0078 173.383 56.6797 182.523 56.6797C191.664 56.6797 199.609 59.9141 206.359 66.3828C213.109 72.8047 216.484 80.75 216.484 90.2188C216.484 99.6875 213.273 107.68 206.852 114.195C200.477 120.664 192.461 123.898 182.805 123.898C173.148 123.898 165.133 120.617 158.758 114.055C152.383 107.492 149.195 99.6172 149.195 90.4297ZM166.703 108.5C171.297 116.234 177.555 120.102 185.477 120.102C191.617 120.102 196.305 117.641 199.539 112.719C202.82 107.797 204.461 101.75 204.461 94.5781C204.461 87.4062 202.164 80.0469 197.57 72.5C193.023 64.9531 186.883 61.1797 179.148 61.1797C173.477 61.1797 169 63.6406 165.719 68.5625C162.484 73.4375 160.867 79.6484 160.867 87.1953C160.867 94.6953 162.812 101.797 166.703 108.5ZM281.945 65.2578C281.945 68.5391 280.047 70.1797 276.25 70.1797C274.328 70.1797 272.688 69.6406 271.328 68.5625C270.016 67.4375 268.984 66.5 268.234 65.75C267.531 64.9531 266.781 64.2266 265.984 63.5703C262.609 60.8047 258.484 60.5 253.609 62.6562C248.781 64.8125 245.055 69.4062 242.43 76.4375C240.977 80.3281 240.25 84.1953 240.25 88.0391C240.25 96.2891 242.125 103.039 245.875 108.289C249.625 113.492 255.367 116.094 263.102 116.094C268.867 116.094 274.047 113.516 278.641 108.359C280.047 106.812 280.891 106.039 281.172 106.039C281.453 106.039 281.758 106.18 282.086 106.461C282.414 106.742 282.578 107.164 282.578 107.727C282.578 108.242 282.438 108.641 282.156 108.922C274.984 118.906 265.961 123.898 255.086 123.898C247.211 123.898 240.742 120.969 235.68 115.109C230.664 109.25 228.156 102.547 228.156 95C228.203 81.0312 231.578 70.9766 238.281 64.8359C244.188 59.4453 252.602 56.75 263.523 56.75C270.273 56.75 274.75 57.4297 276.953 58.7891C279.156 60.1484 280.703 61.8594 281.594 63.9219C281.828 64.3906 281.945 64.8359 281.945 65.2578ZM335.875 110.398C335.875 111.617 336.438 112.602 337.562 113.352C338.734 114.055 340.07 114.406 341.57 114.406C343.07 114.406 344.312 114.031 345.297 113.281C346.328 112.484 347.031 112.086 347.406 112.086C347.781 112.086 347.969 112.602 347.969 113.633C347.969 114.617 347.5 115.461 346.562 116.164C339.531 121.32 334.773 123.898 332.289 123.898C329.289 123.898 326.852 120.781 324.977 114.547C324.836 114.078 324.719 113.867 324.625 113.914C318.812 118.273 315.156 120.898 313.656 121.789C309.812 123.992 305.945 124.344 302.055 122.844C298.211 121.344 295.422 118.859 293.688 115.391C292.844 113.609 292.422 111.711 292.422 109.695C292.422 105.711 293.898 102.547 296.852 100.203C299.805 97.8594 305.43 95.6094 313.727 93.4531C316.539 92.7031 319.047 91.7422 321.25 90.5703C323.453 89.3984 324.602 88.6484 324.695 88.3203C324.836 87.9922 324.906 87.6875 324.906 87.4062V73.9062C324.906 68.6094 322.844 64.8828 318.719 62.7266C317.359 62.0234 315.719 61.6719 313.797 61.6719C311.922 61.6719 310 62.4219 308.031 63.9219C306.109 65.4219 305.148 67.5547 305.148 70.3203L305.5 73.0625C305.219 73.625 303.531 74.5625 300.438 75.875C297.344 77.1875 295.562 77.8906 295.094 77.9844C294.344 77.9844 293.969 77.0938 293.969 75.3125C293.969 73.4844 294.508 71.4688 295.586 69.2656C296.664 67.0625 298.188 65.0469 300.156 63.2188C304.75 58.9531 310 56.8203 315.906 56.8203C321.812 56.8203 326.617 58.4609 330.32 61.7422C334.023 64.9766 335.875 68.8438 335.875 73.3438V110.398ZM303.461 108.359C303.461 110.609 304.328 112.578 306.062 114.266C307.797 115.906 309.766 116.727 311.969 116.727C314.219 116.727 316.938 115.789 320.125 113.914C323.312 111.992 324.906 110.023 324.906 108.008V93.7344C324.906 93.2188 324.789 92.9609 324.555 92.9609C324.32 92.9609 324.156 92.9844 324.062 93.0312L307.75 100.625C306.062 101.844 304.914 102.875 304.305 103.719C303.742 104.562 303.461 106.109 303.461 108.359Z" fill="#141414"/>
</svg>
