<svg width="483" height="213" viewBox="0 0 483 213" fill="none" xmlns="http://www.w3.org/2000/svg">
<rect width="483" height="213" fill="#EBEBEB"/>
<path d="M83.3594 30.2891V36.3359H64.3047C60.8828 36.3359 59.1719 38.0469 59.1719 41.4688V164.867C59.1719 168.289 60.8828 170 64.3047 170H84.9766V176.047H48.4141V30.2891H83.3594ZM424.727 41.4688C424.727 38.0469 423.039 36.3359 419.664 36.3359H400.398V30.2891H435.414V176.047H398.852V170H419.664C423.039 170 424.727 168.289 424.727 164.867V41.4688Z" fill="#068D9D"/>
<path d="M191.5 55.1094C191.5 55.4844 191.312 55.6719 190.938 55.6719H188.336C182.383 56.8438 178 61.7188 175.188 70.2969C174.438 72.5469 173.664 74.7266 172.867 76.8359L145.234 151.438C144.812 152.609 144.297 153.312 143.688 153.547C143.078 153.781 142.234 153.898 141.156 153.898H137.852C136.727 153.898 136 153.383 135.672 152.352L98.6172 62.5625C97.1172 58.8594 93.4141 56.5859 87.5078 55.7422C87.1797 55.6953 86.8984 55.6719 86.6641 55.6719C86.4766 55.6719 86.3828 55.4844 86.3828 55.1094V53.4219C86.3828 53.0469 86.5703 52.8594 86.9453 52.8594H128.43C128.805 52.8594 128.992 53.0469 128.992 53.4219V55.1094C128.992 55.4844 128.805 55.6719 128.43 55.6719H127.375C126.203 55.8594 124.844 56.0469 123.297 56.2344C117.297 56.9844 114.297 59.375 114.297 63.4062C114.297 64.6719 114.625 66.0312 115.281 67.4844L141.93 132.312C142.398 133.25 142.891 133.227 143.406 132.242L167.875 66.0078C168.203 65.0703 168.367 63.9688 168.367 62.7031C168.367 61.3906 167.828 60.1484 166.75 58.9766C165.672 57.7578 164.57 57.0547 163.445 56.8672C162.367 56.6797 161.5 56.5391 160.844 56.4453C160.234 56.3516 159.297 56.2109 158.031 56.0234C156.766 55.7891 155.922 55.6719 155.5 55.6719C155.078 55.6719 154.867 55.4844 154.867 55.1094V53.4219C154.867 53.0469 155.055 52.8594 155.43 52.8594H190.938C191.312 52.8594 191.5 53.0469 191.5 53.4219V55.1094ZM197.195 120.43C197.195 111.195 200.453 103.273 206.969 96.6641C213.531 90.0078 221.383 86.6797 230.523 86.6797C239.664 86.6797 247.609 89.9141 254.359 96.3828C261.109 102.805 264.484 110.75 264.484 120.219C264.484 129.688 261.273 137.68 254.852 144.195C248.477 150.664 240.461 153.898 230.805 153.898C221.148 153.898 213.133 150.617 206.758 144.055C200.383 137.492 197.195 129.617 197.195 120.43ZM214.703 138.5C219.297 146.234 225.555 150.102 233.477 150.102C239.617 150.102 244.305 147.641 247.539 142.719C250.82 137.797 252.461 131.75 252.461 124.578C252.461 117.406 250.164 110.047 245.57 102.5C241.023 94.9531 234.883 91.1797 227.148 91.1797C221.477 91.1797 217 93.6406 213.719 98.5625C210.484 103.438 208.867 109.648 208.867 117.195C208.867 124.695 210.812 131.797 214.703 138.5ZM329.945 95.2578C329.945 98.5391 328.047 100.18 324.25 100.18C322.328 100.18 320.688 99.6406 319.328 98.5625C318.016 97.4375 316.984 96.5 316.234 95.75C315.531 94.9531 314.781 94.2266 313.984 93.5703C310.609 90.8047 306.484 90.5 301.609 92.6562C296.781 94.8125 293.055 99.4062 290.43 106.438C288.977 110.328 288.25 114.195 288.25 118.039C288.25 126.289 290.125 133.039 293.875 138.289C297.625 143.492 303.367 146.094 311.102 146.094C316.867 146.094 322.047 143.516 326.641 138.359C328.047 136.812 328.891 136.039 329.172 136.039C329.453 136.039 329.758 136.18 330.086 136.461C330.414 136.742 330.578 137.164 330.578 137.727C330.578 138.242 330.438 138.641 330.156 138.922C322.984 148.906 313.961 153.898 303.086 153.898C295.211 153.898 288.742 150.969 283.68 145.109C278.664 139.25 276.156 132.547 276.156 125C276.203 111.031 279.578 100.977 286.281 94.8359C292.188 89.4453 300.602 86.75 311.523 86.75C318.273 86.75 322.75 87.4297 324.953 88.7891C327.156 90.1484 328.703 91.8594 329.594 93.9219C329.828 94.3906 329.945 94.8359 329.945 95.2578ZM383.875 140.398C383.875 141.617 384.438 142.602 385.562 143.352C386.734 144.055 388.07 144.406 389.57 144.406C391.07 144.406 392.312 144.031 393.297 143.281C394.328 142.484 395.031 142.086 395.406 142.086C395.781 142.086 395.969 142.602 395.969 143.633C395.969 144.617 395.5 145.461 394.562 146.164C387.531 151.32 382.773 153.898 380.289 153.898C377.289 153.898 374.852 150.781 372.977 144.547C372.836 144.078 372.719 143.867 372.625 143.914C366.812 148.273 363.156 150.898 361.656 151.789C357.812 153.992 353.945 154.344 350.055 152.844C346.211 151.344 343.422 148.859 341.688 145.391C340.844 143.609 340.422 141.711 340.422 139.695C340.422 135.711 341.898 132.547 344.852 130.203C347.805 127.859 353.43 125.609 361.727 123.453C364.539 122.703 367.047 121.742 369.25 120.57C371.453 119.398 372.602 118.648 372.695 118.32C372.836 117.992 372.906 117.688 372.906 117.406V103.906C372.906 98.6094 370.844 94.8828 366.719 92.7266C365.359 92.0234 363.719 91.6719 361.797 91.6719C359.922 91.6719 358 92.4219 356.031 93.9219C354.109 95.4219 353.148 97.5547 353.148 100.32L353.5 103.062C353.219 103.625 351.531 104.562 348.438 105.875C345.344 107.188 343.562 107.891 343.094 107.984C342.344 107.984 341.969 107.094 341.969 105.312C341.969 103.484 342.508 101.469 343.586 99.2656C344.664 97.0625 346.188 95.0469 348.156 93.2188C352.75 88.9531 358 86.8203 363.906 86.8203C369.812 86.8203 374.617 88.4609 378.32 91.7422C382.023 94.9766 383.875 98.8438 383.875 103.344V140.398ZM351.461 138.359C351.461 140.609 352.328 142.578 354.062 144.266C355.797 145.906 357.766 146.727 359.969 146.727C362.219 146.727 364.938 145.789 368.125 143.914C371.312 141.992 372.906 140.023 372.906 138.008V123.734C372.906 123.219 372.789 122.961 372.555 122.961C372.32 122.961 372.156 122.984 372.062 123.031L355.75 130.625C354.062 131.844 352.914 132.875 352.305 133.719C351.742 134.562 351.461 136.109 351.461 138.359Z" fill="#141414"/>
</svg>
